<?xml version="1.0" encoding="utf-8"?>
<!-- Generator: Adobe Illustrator 16.0.0, SVG Export Plug-In . SVG Version: 6.00 Build 0)  -->
<!DOCTYPE svg PUBLIC "-//W3C//DTD SVG 1.1//EN" "http://www.w3.org/Graphics/SVG/1.1/DTD/svg11.dtd">
<svg version="1.1" id="Layer_1" xmlns="http://www.w3.org/2000/svg" xmlns:xlink="http://www.w3.org/1999/xlink" x="0px" y="0px"
	 width="70px" height="70px" viewBox="-1.5 -1.5 70 70" enable-background="new -1.5 -1.5 70 70" xml:space="preserve">
<circle fill="#FFFFFF" stroke="#000000" stroke-width="5" stroke-miterlimit="10" cx="33.75" cy="34" r="31"/>
<g>
	<g>
		<path stroke="#000000" stroke-width="2.2" stroke-miterlimit="10" d="M53.922,32.612c-14,0-28,0-42,0c-2.902,0-2.902,4.5,0,4.5
			c14,0,28,0,42,0C56.824,37.112,56.824,32.612,53.922,32.612L53.922,32.612z"/>
	</g>
</g>
<g>
	<g>
		<g>
			<path stroke="#000000" stroke-width="2.2" stroke-miterlimit="10" d="M53.081,32.771c-4.379,4.379-8.759,8.759-13.138,13.138
				c-2.055,2.054,1.128,5.235,3.182,3.182c4.379-4.379,8.759-8.759,13.138-13.138C58.317,33.899,55.134,30.717,53.081,32.771
				L53.081,32.771z"/>
		</g>
	</g>
	<g>
		<g>
			<path stroke="#000000" stroke-width="2.2" stroke-miterlimit="10" d="M56.263,32.909c-4.379-4.379-8.758-8.759-13.138-13.138
				c-2.054-2.054-5.235,1.128-3.182,3.182c4.379,4.379,8.759,8.759,13.138,13.138C55.135,38.145,58.317,34.963,56.263,32.909
				L56.263,32.909z"/>
		</g>
	</g>
</g>
</svg>
