<?xml version="1.0" encoding="utf-8"?>
<!-- Generator: Adobe Illustrator 16.0.0, SVG Export Plug-In . SVG Version: 6.00 Build 0)  -->
<!DOCTYPE svg PUBLIC "-//W3C//DTD SVG 1.1//EN" "http://www.w3.org/Graphics/SVG/1.1/DTD/svg11.dtd">
<svg version="1.1" id="Layer_1" xmlns="http://www.w3.org/2000/svg" xmlns:xlink="http://www.w3.org/1999/xlink" x="0px" y="0px"
	 width="502.26px" height="65.751px" viewBox="0 0 502.26 65.751" enable-background="new 0 0 502.26 65.751" xml:space="preserve">
<g>
	<g>
		<path fill-rule="evenodd" clip-rule="evenodd" d="M161.741,1.789c3.076,0,5.574,0,8.274,0c0,16.636,0,33.165,0,50.043
			c-2.792,0-5.617,0.148-8.386-0.097c-0.758-0.069-1.691-1.248-1.958-2.04c-3.489-10.321-6.871-20.666-10.284-31.003
			c-0.261-0.79-0.561-1.573-1.404-2.34c0,11.718,0,23.437,0,35.319c-3.098,0-5.77,0-8.643,0c0-16.577,0-33.102,0-49.979
			c3.656,0,7.313-0.116,10.938,0.1c0.704,0.042,1.602,1.31,1.873,2.123c2.718,8.17,5.322,16.364,7.967,24.548
			c0.268,0.829,0.596,1.646,1.624,2.361C161.741,21.202,161.741,11.581,161.741,1.789z"/>
		<path fill-rule="evenodd" clip-rule="evenodd" d="M501.173,51.839c-1.62,0-3.745-0.161-5.814,0.04
			c-2.905,0.279-3.735-0.844-3.743-2.815c-0.02-4.06-0.038-8.119-0.098-12.178c-0.085-5.653-2.396-7.115-9.984-6.133
			c0,6.879,0,13.803,0,20.907c-3.379,0-6.462,0-9.725,0c0-16.615,0-33.147,0-50.205c6.846,0.253,13.56,0.26,20.195,0.833
			c4.31,0.372,7.624,2.722,8.15,6.099c0.645,4.131,0.678,8.417-0.001,12.535c-0.331,2.011-2.877,3.797-4.499,5.779
			c4.733,1.729,5.416,5.654,5.494,9.73C501.247,41.469,501.173,46.507,501.173,51.839z M481.771,8.646c0,4.989,0,9.845,0,14.679
			c7.631,0.543,9.596-0.792,9.608-6.353c0.004-1.485,0.047-2.983-0.156-4.454c-0.37-2.678-1.921-3.745-5.379-3.866
			C484.591,8.609,483.333,8.646,481.771,8.646z"/>
		<path fill-rule="evenodd" clip-rule="evenodd" d="M315.844,26.349c6.113,2.214,6.411,6.436,6.526,10.628
			c0.135,4.868,0.032,9.743,0.032,14.862c-1.295,0-3.309-0.193-5.236,0.042c-3.522,0.43-4.45-0.977-4.45-3.333
			c0-3.895-0.031-7.789-0.072-11.682c-0.057-5.662-2.365-7.125-9.961-6.113c0,6.89,0,13.823,0,20.921c-3.313,0-6.321,0-9.579,0
			c0-16.564,0-33.151,0-49.567c6.477,0,12.896-0.332,19.231,0.1c5.541,0.377,8.813,3.104,9.461,7.441
			c0.498,3.342,0.374,6.781,0.035,10.147C321.544,22.645,319.501,24.884,315.844,26.349z M302.863,23.282
			c7.692,0.671,9.706-0.725,9.7-6.496c-0.002-1.486,0.039-2.981-0.146-4.456c-0.289-2.314-2.047-3.545-4.99-3.668
			c-1.446-0.06-2.9-0.011-4.564-0.011C302.863,13.636,302.863,18.388,302.863,23.282z"/>
		<path fill-rule="evenodd" clip-rule="evenodd" d="M400.997,1.805c3.118,0,6.126,0,9.455,0c0,6.727,0,13.398,0,20.069
			c0.232,0.06,0.464,0.118,0.697,0.177c0.469-0.656,0.99-1.29,1.397-1.969c3.244-5.39,6.551-10.758,9.644-16.201
			c0.947-1.666,2.06-2.461,4.464-2.24c1.97,0.181,3.988,0.036,6.393,0.036c-0.465,0.865-0.767,1.527-1.165,2.151
			c-3.031,4.734-5.985,9.502-9.178,14.167c-1.103,1.613-1.109,3.008-0.45,4.689c3.748,9.57,7.382,19.165,11.138,28.975
			c-3.429,0-6.611,0-10.115,0c-2.729-7.114-5.507-14.358-8.551-22.298c-1.985,3.361-4.397,5.713-4.21,9.047
			c0.244,4.366,0.06,8.746,0.06,13.273c-3.293,0-6.302,0-9.578,0C400.997,35.114,400.997,18.523,400.997,1.805z"/>
		<path fill-rule="evenodd" clip-rule="evenodd" d="M349.386,41.984c-3.907,0-7.568,0-11.545,0
			c-0.654,3.255-1.302,6.479-1.956,9.735c-3,0-5.811,0-8.883,0c3.454-16.709,6.874-33.264,10.317-49.916c4.483,0,8.765,0,13.314,0
			c3.432,16.589,6.859,33.15,10.322,49.889c-3.274,0-6.279,0-9.601,0C350.708,48.49,350.053,45.265,349.386,41.984z M348.258,34.868
			c-1.451-7.904-2.864-15.597-4.277-23.291c-0.272,0.001-0.548,0.002-0.821,0.004c-1.386,7.706-2.772,15.413-4.189,23.287
			C342.083,34.868,344.884,34.868,348.258,34.868z"/>
		<path fill-rule="evenodd" clip-rule="evenodd" d="M385.351,33.176c3.262,0,5.977,0,9.077,0c0.044,4.341,0.884,8.628-1.15,12.771
			c-2.22,4.521-7.854,6.867-14.952,6.354c-6.858-0.496-11.364-3.522-12.521-8.567c-0.37-1.618-0.479-3.292-0.489-4.943
			c-0.048-8.032-0.024-16.064-0.015-24.097c0-0.827,0.03-1.656,0.12-2.479C366.403,3.231,375.7-1.23,386.432,2.104
			c3.452,1.074,6.111,2.959,6.892,5.74c0.953,3.4,1.133,6.933,1.672,10.566c-3.655,0-6.454,0-9.642,0
			c0-1.992,0.045-3.871-0.011-5.751c-0.085-2.893-1.783-4.417-4.925-4.502c-3.146-0.085-5.222,1.403-5.253,4.227
			c-0.109,9.605-0.122,19.209-0.022,28.816c0.03,2.797,2.176,4.282,5.332,4.162c3.05-0.117,4.771-1.578,4.857-4.299
			C385.416,38.514,385.351,35.963,385.351,33.176z"/>
		<path fill-rule="evenodd" clip-rule="evenodd" d="M80.673,51.712c-3.423,0-6.429,0-9.665,0c0-16.57,0-33.084,0-50.016
			c6.979,0.274,14.104-0.872,21.06,0.922c4.57,1.18,7.161,4.008,7.583,7.574c0.494,4.171,0.624,8.448,0.021,12.6
			c-0.788,5.43-5.803,8.403-13.268,8.641c-1.769,0.057-3.542,0.008-5.73,0.008C80.673,38.29,80.673,44.942,80.673,51.712z
			 M80.836,24.452c1.867,0,3.536,0.106,5.174-0.023c2.646-0.212,4.29-1.405,4.368-3.548c0.105-2.892,0.118-5.791-0.009-8.682
			c-0.094-2.14-1.771-3.315-4.421-3.509c-1.635-0.119-3.297-0.022-5.111-0.022C80.836,14.041,80.836,19.118,80.836,24.452z"/>
		<path fill-rule="evenodd" clip-rule="evenodd" d="M176.535,37.118c2.946,0,5.737,0,8.923,0c0,1.423-0.119,2.732,0.024,4.022
			c0.308,2.786,2.255,4.255,5.396,4.222c3.15-0.035,4.959-1.563,5.22-4.356c0.341-3.648-1.408-6.64-4.653-9.144
			c-3.082-2.379-6.337-4.626-9.286-7.101c-5.13-4.308-6.721-9.46-5.15-15.2c1.469-5.369,6.495-8.332,14.056-8.379
			c7.508-0.047,12.39,2.696,13.929,8.069c0.564,1.966,0.554,4.036,0.825,6.218c-3.316,0-6.104,0-9.054,0
			c-0.122-1.253-0.157-2.399-0.361-3.523c-0.457-2.53-2.301-3.839-5.203-3.786c-2.872,0.05-4.617,1.436-4.941,4.008
			c-0.339,2.694,0.579,5.154,2.91,7.121c2.724,2.297,5.612,4.486,8.565,6.604c6.419,4.601,9.092,10.21,7.817,16.98
			c-1.138,6.048-6.566,9.516-14.874,9.463c-7.991-0.05-13.128-3.432-14.098-9.473C176.284,41.016,176.535,39.115,176.535,37.118z"/>
		<path fill-rule="evenodd" clip-rule="evenodd" d="M0.779,1.782c9.008,0,17.726,0,26.654,0c0,2.211,0,4.323,0,6.756
			c-5.485,0-11.001,0-16.789,0c0,4.73,0,9.144,0,13.825c4.253,0,8.526,0,13.082,0c0,2.426,0,4.599,0,7.083
			c-4.327,0-8.687,0-13.187,0c0,5.235,0,10.162,0,15.395c5.687,0,11.212,0,16.915,0c0,2.417,0,4.529,0,6.822
			c-8.835,0-17.628,0-26.675,0C0.779,35.121,0.779,18.545,0.779,1.782z"/>
		<path fill-rule="evenodd" clip-rule="evenodd" d="M221.922,8.641c0,4.915,0,9.201,0,13.748c4.414,0,8.687,0,13.225,0
			c0,2.43,0,4.6,0,7.004c-4.297,0-8.573,0-13.111,0c0,5.208,0,10.185,0,15.474c5.632,0,11.155,0,16.838,0c0,2.418,0,4.532,0,6.81
			c-8.885,0-17.678,0-26.707,0c0-16.58,0-33.158,0-49.865c8.909,0,17.7,0,26.687,0c0,2.21,0,4.322,0,6.83
			C233.232,8.641,227.627,8.641,221.922,8.641z"/>
		<path fill-rule="evenodd" clip-rule="evenodd" d="M438.691,51.644c0-16.601,0-33.12,0-49.801c8.895,0,17.687,0,26.715,0
			c0,2.112,0,4.222,0,6.66c-5.406,0-10.922,0-16.736,0c0,4.724,0,9.133,0,13.901c4.269,0,8.615,0,13.146,0c0,2.467,0,4.583,0,7.008
			c-4.359,0-8.726,0-13.263,0c0,5.234,0,10.161,0,15.392c5.618,0,11.146,0,16.876,0c0,2.413,0,4.525,0,6.84
			C456.668,51.644,447.875,51.644,438.691,51.644z"/>
		<path fill-rule="evenodd" clip-rule="evenodd" d="M106.208,1.822c8.856,0,17.647,0,26.623,0c0,2.243,0,4.356,0,6.777
			c-5.629,0-11.155,0-16.895,0c0,4.721,0,9.136,0,13.872c4.47,0,8.827,0,13.353,0c0,2.43,0,4.542,0,6.937c-4.449,0-8.813,0-13.372,0
			c0,5.204,0,10.13,0,15.372c5.555,0,11.075,0,16.843,0c0,2.478,0,4.642,0,6.935c-8.858,0-17.563,0-26.552,0
			C106.208,35.106,106.208,18.537,106.208,1.822z"/>
		<path fill-rule="evenodd" clip-rule="evenodd" d="M267.543,51.7c0-14.31,0-28.509,0-43.024c-3.628,0-6.935,0-10.411,0
			c0-2.431,0-4.543,0-6.828c10.124,0,20.167,0,30.39,0c0,2.195,0,4.308,0,6.687c-3.292,0-6.508,0-10.189,0
			c0,14.517,0,28.774,0,43.166C273.869,51.7,270.875,51.7,267.543,51.7z"/>
		<path fill-rule="evenodd" clip-rule="evenodd" fill="#FFFFFF" d="M302.863,23.282c0-4.894,0-9.646,0-14.631
			c1.664,0,3.118-0.049,4.564,0.011c2.943,0.123,4.701,1.354,4.99,3.668c0.185,1.475,0.144,2.97,0.146,4.456
			C312.569,22.557,310.555,23.953,302.863,23.282z"/>
		<path fill-rule="evenodd" clip-rule="evenodd" fill="#FFFFFF" d="M348.258,34.868c-3.374,0-6.175,0-9.288,0
			c1.417-7.874,2.804-15.581,4.189-23.287c0.273-0.001,0.549-0.002,0.821-0.004C345.394,19.271,346.807,26.963,348.258,34.868z"/>
	</g>
	<path fill-rule="evenodd" clip-rule="evenodd" d="M56.464,28.483c-0.222-0.524-0.325-1.114-0.368-1.714h-0.003
		c0.247-3.676,3.039-7.348,4.668-11.017c2.042-4.599,4.215-9.31,6.265-13.894c-0.62-0.112-0.681-0.121-0.943-0.14
		c-8.01-0.611-8.273-0.488-11.205,5.433c-1.995,4.029-3.494,7.592-5.123,11.393c-1.485-4.417-2.921-6.964-4.431-10.535
		c-2.771-6.557-2.771-6.557-11.504-6.312c-0.312,0.009-0.621,0.072-1.229,0.146c0.383,0.896,0.729,1.745,1.108,2.584
		c3.098,6.867,6.301,13.71,9.224,20.625c0.222,0.524,0.325,1.114,0.368,1.714h0.003c-0.247,3.676-3.039,7.348-4.668,11.017
		c-2.042,4.598-4.215,9.31-6.265,13.893c0.62,0.112,0.681,0.121,0.943,0.14c8.01,0.611,8.273,0.488,11.205-5.433
		c1.995-4.029,3.494-7.592,5.123-11.393c1.485,4.417,2.921,6.964,4.431,10.535c2.771,6.557,2.771,6.557,11.504,6.311
		c0.312-0.009,0.621-0.072,1.229-0.146c-0.383-0.896-0.729-1.745-1.108-2.585C62.59,42.241,59.387,35.397,56.464,28.483z"/>
</g>
<ellipse fill-rule="evenodd" clip-rule="evenodd" cx="46.68" cy="4.621" rx="1.263" ry="1.2"/>
<ellipse fill-rule="evenodd" clip-rule="evenodd" cx="53.122" cy="4.621" rx="1.263" ry="1.2"/>
<path fill-rule="evenodd" clip-rule="evenodd" d="M49.799,11.47c1.558,0,2.82-1.398,2.82-3.123h-5.641
	C46.979,10.072,48.241,11.47,49.799,11.47z"/>
<linearGradient id="SVGID_1_" gradientUnits="userSpaceOnUse" x1="570.7407" y1="61.001" x2="72.6554" y2="61.0009">
	<stop  offset="0" style="stop-color:#A40000"/>
	<stop  offset="0.5914" style="stop-color:#000000"/>
</linearGradient>
<rect x="0.776" y="57.501" fill-rule="evenodd" clip-rule="evenodd" fill="url(#SVGID_1_)" width="500.42" height="7"/>
</svg>
